# xmcd CD database file generated by OrangeCD 5.2
#
# Track frame offsets:
#	150
#	27410
#	44942
#	58629
#	70613
#	94358
#	111307
#	127188
#	140450
#	158604
#	178798
#	191244
#
# Disc length: 2738 seconds
#
# Revision: 0
# Processed by: cddbd v1.5.1PL0 Copyright (c) Steve Scherf et al.
# Submitted via: OrangeCD 5.2
#
DISCID=b90ab00c
DTITLE=Johnny Cash - Southern Accents - cd 2
DYEAR=1900
DGENRE=Country
TTITLE0=June Carter Cash - I Used To Be Someone
TTITLE1=June Carter Cash - Will The Circle Be Unbroken
TTITLE2=Big River
TTITLE3=I Still Miss Someone
TTITLE4=Orange Blossom Special
TTITLE5=Johnny Cash and June Carter Cash - Far Side Banks Of The Jordan
TTITLE6=Bird On A Wire
TTITLE7=Death And Hell
TTITLE8=Johnny Cash, Willie Nelson, Waylon Jennings and Kris Kristofferson - Big 
TTITLE8=River
TTITLE9=Johnny Cash and Kris Kristofferson - Sunday Morning Coming Down
TTITLE10=Get Rhythm
TTITLE11=Folsom Prison Blues
EXTD=
EXTT0=
EXTT1=
EXTT2=
EXTT3=
EXTT4=
EXTT5=
EXTT6=
EXTT7=
EXTT8=
EXTT9=
EXTT10=
EXTT11=
PLAYORDER=
